<svg width="73" height="73" viewBox="0 0 73 73" fill="none" xmlns="http://www.w3.org/2000/svg">
<path d="M70.9074 36.5317C70.9315 34.6819 69.9295 32.9818 68.3023 32.0894L30.3835 11.2557C28.6851 10.2958 26.683 10.4138 25.0826 11.5066C23.4528 12.6178 22.6187 15.2631 23.0743 17.1737L26.6141 32.0045C26.9775 33.5253 28.3386 34.5961 29.9045 34.5894L51.0062 34.5239C52.0868 34.5023 52.9632 35.3786 52.9415 36.4592C52.9382 37.5214 52.0748 38.3849 50.9942 38.4066L29.8724 38.4556C28.3065 38.4586 26.9388 39.5343 26.5659 41.0573L22.9008 55.9471C22.4558 57.7066 22.9632 59.4632 24.2047 60.7047C24.3508 60.8508 24.5151 61.0151 24.6795 61.1428C26.2873 62.3831 28.3929 62.5414 30.1907 61.5835L68.2382 40.9537C69.8708 40.0878 70.8834 38.3815 70.9074 36.5317Z" fill="#060D1F"/>
</svg>
